<svg
  aria-hidden="true"
  style="position: absolute; width: 0; height: 0; overflow: hidden"
  version="1.1"
  xmlns="http://www.w3.org/2000/svg"
  xmlns:xlink="http://www.w3.org/1999/xlink"
>
  <defs>
    <!-- features section -->

    <symbol id="icon-antenna" viewBox="0 0 64 64">
      <path
        d="M59.546 44.195 42.66 27.185l1.874-9.231c.484.189.998.287 1.517.291h.013a4.318 4.318 0 1 0-4.017-2.87l-9.92 1.21L15.946.32a1.067 1.067 0 0 0-.753-.32c-.28.001-.549.112-.747.31l-3.025 3.008a1.067 1.067 0 0 0 0 1.508l1.628 1.651a29.885 29.885 0 0 0 5.039 35.326c.085.082.184.148.292.196a6.192 6.192 0 0 0-.105 1.094v12.373h-12.8a5.34 5.34 0 0 0-5.333 5.333v2.134c0 .589.478 1.066 1.067 1.066h49.067c.589 0 1.066-.477 1.066-1.066v-2.134a5.34 5.34 0 0 0-5.333-5.333h-12.8v-5.484c2.005.42 4.048.635 6.097.64a29.699 29.699 0 0 0 14.08-3.567l1.636 1.646c.199.203.47.318.753.32.28-.001.549-.113.747-.31l3.025-3.008a1.067 1.067 0 0 0 0-1.509zM44.559 12.466a2.133 2.133 0 1 1 1.504 3.646h-.007a2.133 2.133 0 0 1-1.493-3.646h-.004zm-2.51 7.01-1.198 5.89-2.35-2.364 3.547-3.527zm-1.213-1.805-3.84 3.818-2.97-2.987 6.81-.83zM46.008 57.6a3.2 3.2 0 0 1 3.2 3.2v1.067H2.275V60.8a3.2 3.2 0 0 1 3.2-3.2h40.533zm-14.933-4.266v2.133H20.408v-2.133h10.667zm-10.667-2.134v-8.106c0-2.588 2.392-4.694 5.333-4.694s5.333 2.106 5.333 4.694v8.106H20.407zm12.8-3.392v-4.714c0-3.765-3.35-6.827-7.467-6.827a7.6 7.6 0 0 0-6.562 3.572 27.738 27.738 0 0 1-4.557-31.774l37.203 37.417a27.642 27.642 0 0 1-18.618 2.327zm22.578-1.367-1.503-1.511L15.18 5.59l-1.51-1.512 1.51-1.504 15.87 15.959c.007 0 .012.014.019.02l26.229 26.382-1.514 1.504z"
        fill="#2E2F42"
      />
      <path
        d="M25.751 40.533h-.01a3.2 3.2 0 0 0-.01 6.4h.01a3.2 3.2 0 0 0 .01-6.4zm.747 3.956a1.067 1.067 0 0 1-1.818-.761 1.068 1.068 0 0 1 1.061-1.062 1.067 1.067 0 0 1 .747 1.823h.01z"
        fill="#4D5AE5"
      />
    </symbol>

    <symbol id="icon-clock" viewBox="0 0 64 64">
      <path
        d="M62.593 30.602C62.59 13.697 48.883-.004 31.977 0 15.072.003 1.371 13.711 1.375 30.616a30.608 30.608 0 0 0 21.299 29.152c.121.038.247.058.374.057.24 0 .477-.065.685-.187.27-.16.471-.414.566-.713l7.73-24.5a3.826 3.826 0 1 0-1.68-7.27L20.137 16.942a1.275 1.275 0 0 0-1.803 1.804L28.54 28.964a3.752 3.752 0 0 0 1.073 4.618l-7.365 23.346C7.692 51.566.238 35.42 5.6 20.865 10.962 6.309 27.109-1.144 41.665 4.218 56.22 9.58 63.674 25.726 58.312 40.282a28.09 28.09 0 0 1-14.924 15.947l-.796-3.748a1.275 1.275 0 0 0-2.097-.688l-7.674 6.852a1.275 1.275 0 0 0 .462 2.168l9.797 3.127a1.275 1.275 0 0 0 1.638-1.48l-.782-3.678a30.509 30.509 0 0 0 18.658-28.178zm-30.609-1.275a1.276 1.276 0 1 1 0 2.551 1.276 1.276 0 0 1 0-2.551zm4.2 29.728 4.369-3.897 1.205 5.68z"
        fill="#2e2f42"
      />
      <g fill="#4d5ae5">
        <path
          d="M30.709 6.37v2.55a1.275 1.275 0 1 0 2.55 0V6.37a1.276 1.276 0 0 0-2.55 0zM7.752 29.327a1.275 1.275 0 0 0 0 2.55h2.55a1.275 1.275 0 1 0 0-2.55zM56.216 31.878a1.275 1.275 0 1 0 0-2.55h-2.55a1.276 1.276 0 0 0 0 2.55z"
        />
      </g>
    </symbol>

    <symbol id="icon-diagram" viewBox="0 0 64 64">
      <path
        d="M29.851 29.93h2.132v9.594h-2.132zm8.529 4.264h2.132v5.33H38.38zm-17.058 3.198h2.132v2.132h-2.132zm-6.397-1.066h2.133v3.198h-2.133z"
        fill="#4d5ae5"
      />
      <path
        d="M3.198 56.582h51.173a3.198 3.198 0 0 0 3.199-3.198v-4.265a3.198 3.198 0 0 0-3.199-3.198h-1.066V19.334l6.056-5.736a3.216 3.216 0 1 0-1.493-1.526l-4.563 4.325v-2.46a3.198 3.198 0 0 0-3.198-3.198H7.463a3.198 3.198 0 0 0-3.199 3.199V45.92H3.198A3.198 3.198 0 0 0 0 49.119v4.265a3.198 3.198 0 0 0 3.198 3.198zm57.57-46.909a1.067 1.067 0 1 1 0 2.133 1.067 1.067 0 0 1 0-2.133zM6.397 13.938c0-.59.477-1.067 1.066-1.067h42.644c.589 0 1.066.478 1.066 1.067v4.477l-2.132 2.026V16.07c0-.589-.477-1.066-1.066-1.066H9.595c-.589 0-1.066.477-1.066 1.066v26.652c0 .59.477 1.067 1.066 1.067h38.38c.589 0 1.066-.478 1.066-1.067V23.374l2.132-2.02V45.92H6.397zm9.595 13.859a3.198 3.198 0 1 0 2.214 5.497l3.706 1.86c.43.215.953.114 1.273-.246l7.877-8.863 7.744 5.803c.416.311.996.278 1.372-.079l6.73-6.375v16.262H10.662v-24.52H46.91v5.32L39.366 29.6l-7.81-5.855a1.067 1.067 0 0 0-1.435.145l-7.986 8.985-2.986-1.493c.022-.128.036-.257.041-.387a3.199 3.199 0 0 0-3.198-3.198zm1.066 3.198a1.067 1.067 0 1 1-2.133 0 1.067 1.067 0 0 1 2.133 0zm6.396 17.058h10.661v1.066c0 .589-.477 1.066-1.066 1.066H24.52a1.066 1.066 0 0 1-1.066-1.066zM2.132 49.12c0-.589.478-1.066 1.066-1.066h18.124v1.066a3.198 3.198 0 0 0 3.198 3.199h8.53a3.198 3.198 0 0 0 3.198-3.199v-1.066H54.37c.59 0 1.067.477 1.067 1.066v4.265c0 .588-.478 1.066-1.067 1.066H3.198a1.066 1.066 0 0 1-1.066-1.066z"
        fill="#2e2f42"
      />
    </symbol>

    <symbol id="icon-astronaut" viewBox="0 0 64 64">
      <path
        d="M9.6 14.377H7.466v2.133H9.6zm4.266 0h-2.133v2.133h2.133zm-2.133 2.134H9.6v2.133h2.133zm0-4.267H9.6v2.133h2.133zm18.134 38.4h-2.133v2.133h2.133zm4.266 0H32v2.134h2.133zM32 52.779h-2.133v2.133H32zm0-4.267h-2.133v2.134H32zm10.667 6.4h-2.133v2.134h2.133zm4.267 0h-2.133v2.134h2.133zM44.8 57.045h-2.133v2.134H44.8zm0-4.267h-2.133v2.133H44.8zm5.334-9.6h-2.133v2.133h2.133zm4.266 0h-2.133v2.133H54.4zm-2.133 2.133h-2.133v2.133h2.133zm0-4.267h-2.133v2.133h2.133zM63.948 9.048a1.068 1.068 0 0 0-.86-.725l-3.822-.556-1.71-3.463c-.358-.73-1.554-.73-1.912 0l-1.71 3.463-3.82.556a1.066 1.066 0 0 0-.592 1.819l2.765 2.695-.653 3.806c-.068.4.096.804.424 1.043.332.241.765.271 1.124.081L56.6 15.97l3.418 1.797a1.068 1.068 0 0 0 1.547-1.124l-.652-3.806 2.766-2.696a1.07 1.07 0 0 0 .269-1.093zm-4.926 2.654c-.25.244-.366.598-.306.944l.382 2.228-2.001-1.052a1.063 1.063 0 0 0-.994 0L54.1 14.874l.382-2.228a1.068 1.068 0 0 0-.306-.944l-1.62-1.579 2.238-.325c.348-.05.647-.269.803-.584l1-2.026L57.6 9.214c.156.315.456.534.803.584l2.238.325z"
        fill="#4d5ae5"
      />
      <path
        d="M39.422 18.644h-2.133v2.134h2.133zm-5.094-8.502-.515 2.072c.142.035 3.475.903 3.475 4.297h2.133c0-4.034-3.33-5.93-5.093-6.369zm-7.124 26.946-4.286-4.267a1.066 1.066 0 0 0-1.505 0l-4.285 4.267a1.072 1.072 0 0 0 0 1.513l4.285 4.266a1.066 1.066 0 0 0 1.505 0l4.286-4.266a1.067 1.067 0 0 0 0-1.513zm-5.038 3.518-2.773-2.762 2.773-2.761 2.774 2.761zM49.43 28.319a3.548 3.548 0 0 0-2.377-1.41 3.553 3.553 0 0 0-2.68.705l-2.503 1.919-3.796 2.835-2.716-1.082c4.843-2.172 8.228-7.016 8.228-12.64C43.586 11 37.34 4.78 29.664 4.78S15.742 11 15.742 18.646c0 2.772.828 5.349 2.24 7.517l-5.528-.048h-.01c-.017 0-.03.009-.047.01a1.04 1.04 0 0 0-.31.062c-.026.01-.052.015-.077.026-.012.006-.025.007-.038.013L5.506 29.42h-.002l-3.787 1.822a.82.82 0 0 0-.126.07 3.56 3.56 0 0 0-1.197 4.591c.44.858 1.19 1.49 2.112 1.778a3.558 3.558 0 0 0 2.757-.257l2.776-1.476 4.528-2.338 2.714-.016-10.883 10.83-.004.003-2.677 2.666a3.298 3.298 0 0 0-.98 2.356c0 .89.348 1.727.98 2.357.65.647 1.504.97 2.358.97a3.34 3.34 0 0 0 2.36-.97l2.63-2.618 3.48-2.599 1.803 1.794-3.524 3.508c0 .002-.002.002-.003.003l-2.677 2.666a3.298 3.298 0 0 0-.98 2.355c0 .89.347 1.727.98 2.358.65.646 1.505.97 2.36.97s1.71-.324 2.36-.97l2.678-2.667 4.285-4.266.002-.004 2.02-2-.008-.007c.013-.013.03-.017.044-.031L32.217 38.98l6.942.988a1.052 1.052 0 0 0 .525-.066c.035-.013.066-.03.099-.047.038-.02.079-.03.115-.055l6.427-4.266c.023-.016.036-.042.058-.06.026-.02.058-.028.081-.05l2.543-2.382a3.558 3.558 0 0 0 .424-4.724zM4.261 35.54c-.347.186-.74.223-1.117.104a1.43 1.43 0 0 1-.424-2.52l2.627-1.264.632 1.849.266.776-1.984 1.055zm6.994-3.655-3.096 1.6-.511-1.493-.367-1.074 4.053-2-.079 2.967zm30.2-13.241c0 1.837-.44 3.57-1.199 5.119l-8.362-3.798a3.722 3.722 0 0 0-1.577-2.776l2.928-9.72c4.755 1.512 8.21 5.948 8.21 11.175zm-23.579 0c0-6.47 5.289-11.734 11.79-11.734.505 0 1 .043 1.49.104l-2.865 9.508c-.038-.001-.074-.012-.114-.012a3.743 3.743 0 0 0-3.745 3.733 3.743 3.743 0 0 0 3.745 3.734c1.389 0 2.589-.767 3.236-1.89l7.725 3.51c-2.149 2.893-5.589 4.78-9.473 4.78-6.5 0-11.789-5.264-11.789-11.734zm11.913 1.6c0 .882-.723 1.6-1.612 1.6a1.608 1.608 0 0 1-1.611-1.6c0-.882.723-1.6 1.612-1.6.888 0 1.611.718 1.611 1.6zM4.93 50.292a1.217 1.217 0 0 1-1.709.001 1.187 1.187 0 0 1 0-1.688l1.925-1.917 1.702 1.695zm6.428 7.467a1.216 1.216 0 0 1-1.71.001 1.188 1.188 0 0 1 0-1.688l1.925-1.918.806.8.898.895zm6.963-6.938-.003.002-3.53 3.52-.805-.8-.898-.895 3.526-3.51v-.001l.004-.002c.08-.08.13-.176.179-.271.014-.028.04-.051.052-.08.033-.082.038-.17.051-.257.007-.05.028-.095.028-.145 0-.072-.026-.141-.04-.212-.013-.064-.013-.129-.038-.19-.04-.1-.11-.19-.182-.276-.02-.023-.028-.053-.05-.075h-.001c-.002-.001-.002-.004-.003-.005l-3.213-3.2c-.035-.034-.078-.048-.117-.077a1.026 1.026 0 0 0-.174-.115.99.99 0 0 0-.186-.065 1.022 1.022 0 0 0-.206-.04 1.035 1.035 0 0 0-.191.01 1.068 1.068 0 0 0-.208.04.99.99 0 0 0-.189.09c-.04.023-.084.03-.121.058l-3.547 2.648-1.802-1.795 4.798-4.772 8.722 8.577-1.856 1.838zM31.96 36.788c-.03-.004-.06.008-.09.006a1.044 1.044 0 0 0-.23.014c-.061.01-.119.022-.177.042a.981.981 0 0 0-.193.094c-.06.036-.114.075-.166.123-.026.022-.057.033-.08.058l-9.397 10.291-8.656-8.513 5.666-5.636a1.068 1.068 0 0 0-.759-1.822v-.001l-4.437.026.055-3.215 6.208.054a13.897 13.897 0 0 0 9.963 4.202c.875 0 1.728-.091 2.559-.246.08.064.159.13.26.17l4.819 1.92.305 1.517.356 1.77-6.006-.854zm8.083.357-.627-3.116 2.893-2.16.758 1.004 1.136 1.509zm7.507-5.663-1.676 1.57-1.862-2.472 1.663-1.274c.31-.24.701-.336 1.085-.286.387.054.728.256.96.568.434.584.36 1.397-.17 1.894z"
        fill="#2e2f42"
      />
    </symbol>

    <!-- social-icons -->

    <symbol id="icon-instagram" viewBox="0 0 40 40">
      <path
        d="m20.03 15.891a4.111 4.111 0 0 0 0 8.22 4.111 4.111 0 0 0 0-8.22zm0 6.776a2.667 2.667 0 1 1 0-5.333 2.667 2.667 0 0 1 0 5.333zm5.232-6.938a0.96 0.96 0 1 1-1.92 0 0.96 0.96 0 0 1 1.92 0zm2.722 0.975c-0.037-0.85-0.175-1.435-0.372-1.941a3.904 3.904 0 0 0-0.925-1.419 3.937 3.937 0 0 0-1.416-0.922c-0.51-0.197-1.09-0.335-1.941-0.372-0.856-0.04-1.128-0.05-3.3-0.05s-2.445 0.01-3.298 0.047c-0.85 0.037-1.435 0.175-1.941 0.372a3.903 3.903 0 0 0-1.42 0.925 3.94 3.94 0 0 0-0.921 1.416c-0.197 0.51-0.335 1.09-0.372 1.94-0.04 0.857-0.05 1.13-0.05 3.302s0.01 2.444 0.047 3.297c0.037 0.85 0.175 1.435 0.372 1.941 0.203 0.538 0.519 1.019 0.925 1.42 0.4 0.405 0.884 0.721 1.416 0.921 0.51 0.197 1.09 0.334 1.94 0.372 0.854 0.038 1.126 0.047 3.298 0.047s2.445-0.01 3.298-0.047c0.85-0.037 1.434-0.175 1.94-0.372a4.093 4.093 0 0 0 2.342-2.34c0.197-0.51 0.334-1.092 0.372-1.942 0.037-0.853 0.047-1.125 0.047-3.297s-3e-3 -2.445-0.041-3.298zm-1.44 6.532c-0.035 0.782-0.166 1.204-0.276 1.485a2.655 2.655 0 0 1-1.519 1.52c-0.281 0.109-0.706 0.24-1.485 0.274-0.844 0.038-1.097 0.047-3.231 0.047s-2.392-0.01-3.232-0.047c-0.782-0.034-1.204-0.165-1.485-0.275a2.462 2.462 0 0 1-0.919-0.597 2.487 2.487 0 0 1-0.597-0.919c-0.11-0.281-0.24-0.706-0.275-1.484-0.038-0.844-0.047-1.098-0.047-3.232s0.01-2.391 0.047-3.232c0.034-0.782 0.166-1.204 0.275-1.485 0.128-0.347 0.331-0.662 0.6-0.919 0.26-0.265 0.572-0.469 0.92-0.597 0.28-0.11 0.706-0.24 1.484-0.275 0.844-0.037 1.097-0.047 3.232-0.047 2.138 0 2.39 0.01 3.232 0.047 0.78 0.035 1.203 0.166 1.484 0.275 0.347 0.128 0.663 0.332 0.92 0.597 0.265 0.26 0.468 0.572 0.596 0.92 0.11 0.28 0.24 0.705 0.275 1.484 0.038 0.844 0.047 1.097 0.047 3.232s-0.01 2.385-0.047 3.228z"
        fill="#f4f4fd"
      />
    </symbol>

    <symbol id="icon-twitter" viewBox="0 0 40 40">
      <path
        d="M28 15.039a6.839 6.839 0 0 1-1.89.518 3.262 3.262 0 0 0 1.443-1.813 6.555 6.555 0 0 1-2.08.794 3.28 3.28 0 0 0-5.674 2.243c0 .26.022.51.076.748a9.284 9.284 0 0 1-6.761-3.431 3.285 3.285 0 0 0 1.008 4.384 3.24 3.24 0 0 1-1.482-.404v.036a3.295 3.295 0 0 0 2.628 3.223 3.274 3.274 0 0 1-.86.108 2.9 2.9 0 0 1-.621-.056 3.311 3.311 0 0 0 3.065 2.285 6.59 6.59 0 0 1-4.067 1.399c-.269 0-.527-.012-.785-.045a9.234 9.234 0 0 0 5.032 1.472c6.036 0 9.336-5 9.336-9.334 0-.145-.005-.285-.012-.424A6.544 6.544 0 0 0 28 15.039z"
        fill="#f4f4fd"
      />
    </symbol>

    <symbol id="icon-facebook" viewBox="0 0 40 40">
      <path
        d="M22.665 14.657h1.46v-2.544A18.85 18.85 0 0 0 21.999 12c-2.106 0-3.549 1.325-3.549 3.76V18h-2.324v2.844h2.324V28h2.85v-7.155h2.23l.353-2.844h-2.584v-1.96c0-.821.222-1.384 1.367-1.384z"
        fill="#f4f4fd"
      />
    </symbol>

    <symbol id="icon-linkedin" viewBox="0 0 40 40">
      <path
        d="M27.996 28H28v-5.87c0-2.87-.618-5.082-3.974-5.082-1.613 0-2.696.886-3.138 1.725h-.047v-1.457H17.66V28h3.314v-5.29c0-1.393.264-2.74 1.988-2.74 1.7 0 1.725 1.59 1.725 2.83V28zM12.264 17.318h3.317V28h-3.317zM13.921 12c-1.06 0-1.921.86-1.921 1.921s.86 1.94 1.921 1.94 1.921-.879 1.921-1.94c0-1.06-.861-1.921-1.921-1.921z"
        fill="#f4f4fd"
      />
    </symbol>
  </defs>
</svg>
